<svg width="454" height="49" viewBox="0 0 454 49" fill="none" xmlns="http://www.w3.org/2000/svg">
<path d="M26.6828 15.4091C26.5313 13.7424 25.8571 12.447 24.6601 11.5227C23.4783 10.5833 21.7889 10.1136 19.5919 10.1136C18.1374 10.1136 16.9253 10.303 15.9556 10.6818C14.9859 11.0606 14.2586 11.5833 13.7737 12.25C13.2889 12.9015 13.0389 13.6515 13.0237 14.5C12.9934 15.197 13.1298 15.8106 13.4328 16.3409C13.751 16.8712 14.2056 17.3409 14.7965 17.75C15.4025 18.1439 16.1298 18.4924 16.9783 18.7955C17.8268 19.0985 18.7813 19.3636 19.8419 19.5909L23.8419 20.5C26.1449 21 28.1753 21.6667 29.9328 22.5C31.7056 23.3333 33.1904 24.3258 34.3874 25.4773C35.5995 26.6288 36.5162 27.9545 37.1374 29.4545C37.7586 30.9545 38.0768 32.6364 38.0919 34.5C38.0768 37.4394 37.3343 39.9621 35.8646 42.0682C34.3949 44.1742 32.2813 45.7879 29.5237 46.9091C26.7813 48.0303 23.4707 48.5909 19.5919 48.5909C15.698 48.5909 12.304 48.0076 9.4101 46.8409C6.51616 45.6742 4.26616 43.9015 2.6601 41.5227C1.05404 39.1439 0.22828 36.1364 0.182825 32.5H10.9556C11.0465 34 11.448 35.25 12.1601 36.25C12.8722 37.25 13.8495 38.0076 15.0919 38.5227C16.3495 39.0379 17.804 39.2955 19.4556 39.2955C20.9707 39.2955 22.2586 39.0909 23.3192 38.6818C24.3949 38.2727 25.2207 37.7045 25.7965 36.9773C26.3722 36.25 26.6677 35.4167 26.6828 34.4773C26.6677 33.5985 26.3949 32.8485 25.8646 32.2273C25.3343 31.5909 24.5162 31.0455 23.4101 30.5909C22.3192 30.1212 20.9253 29.6894 19.2283 29.2955L14.3646 28.1591C10.3343 27.2348 7.1601 25.7424 4.84192 23.6818C2.52373 21.6061 1.37222 18.803 1.38737 15.2727C1.37222 12.3939 2.14495 9.87121 3.70555 7.70454C5.26616 5.53788 7.42525 3.84848 10.1828 2.63636C12.9404 1.42424 16.0843 0.81818 19.6146 0.81818C23.2207 0.81818 26.3495 1.43182 29.001 2.65909C31.6677 3.87121 33.7359 5.57576 35.2056 7.77273C36.6753 9.9697 37.4253 12.5151 37.4556 15.4091H26.6828ZM50.4297 1.45454H64.3616L76.1797 30.2727H76.7252L88.5434 1.45454H102.475V48H91.5206V19.4091H91.1343L79.9525 47.7045H72.9525L61.7706 19.25H61.3843V48H50.4297V1.45454ZM126.216 48H114.126L129.83 1.45454H144.807L160.512 48H148.421L137.489 13.1818H137.126L126.216 48ZM124.603 29.6818H149.876V38.2273H124.603V29.6818ZM172.179 48V1.45454H191.407C194.891 1.45454 197.899 2.08333 200.429 3.34091C202.975 4.58333 204.937 6.37121 206.316 8.70454C207.694 11.0227 208.384 13.7727 208.384 16.9545C208.384 20.1818 207.679 22.9242 206.27 25.1818C204.861 27.4242 202.861 29.1364 200.27 30.3182C197.679 31.4848 194.611 32.0682 191.066 32.0682H178.907V23.2045H188.975C190.672 23.2045 192.088 22.9848 193.225 22.5455C194.376 22.0909 195.247 21.4091 195.838 20.5C196.429 19.5758 196.725 18.3939 196.725 16.9545C196.725 15.5151 196.429 14.3258 195.838 13.3864C195.247 12.4318 194.376 11.7197 193.225 11.25C192.073 10.7652 190.657 10.5227 188.975 10.5227H183.429V48H172.179ZM198.384 26.7273L209.975 48H197.702L186.338 26.7273H198.384ZM219.688 10.5909V1.45454H259.028V10.5909H244.915V48H233.824V10.5909H219.688ZM271.179 48V1.45454H282.429V38.8636H301.792V48H271.179ZM314.272 48V1.45454H346.727V10.5909H325.522V20.1364H345.068V29.2955H325.522V38.8636H346.727V48H314.272ZM400.042 1.45454V48H390.496L371.974 21.1364H371.678V48H360.428V1.45454H370.11L388.428 28.2727H388.815V1.45454H400.042ZM430.976 48H413.772V1.45454H430.954C435.696 1.45454 439.779 2.38636 443.204 4.25C446.643 6.09848 449.294 8.76515 451.158 12.25C453.022 15.7197 453.954 19.8712 453.954 24.7045C453.954 29.553 453.022 33.7197 451.158 37.2045C449.31 40.6894 446.666 43.3636 443.226 45.2273C439.787 47.0758 435.704 48 430.976 48ZM425.022 38.4091H430.544C433.151 38.4091 435.355 37.9697 437.158 37.0909C438.976 36.197 440.347 34.75 441.272 32.75C442.211 30.7348 442.681 28.053 442.681 24.7045C442.681 21.3561 442.211 18.6894 441.272 16.7045C440.332 14.7045 438.946 13.2652 437.113 12.3864C435.294 11.4924 433.052 11.0455 430.385 11.0455H425.022V38.4091Z" fill="#4C4DDC"/>
</svg>
