<svg width="14" height="12" viewBox="0 0 14 12" fill="none" xmlns="http://www.w3.org/2000/svg">
<path d="M0.333496 11.3337V7.33366C0.700163 7.33366 1.01416 7.20299 1.2755 6.94166C1.53683 6.68033 1.66727 6.36655 1.66683 6.00033C1.66683 5.63366 1.53616 5.31966 1.27483 5.05833C1.0135 4.79699 0.699718 4.66655 0.333496 4.66699V0.666992H13.6668V4.66699C13.3002 4.66699 12.9862 4.79766 12.7248 5.05899C12.4635 5.32033 12.3331 5.6341 12.3335 6.00033C12.3335 6.36699 12.4642 6.68099 12.7255 6.94233C12.9868 7.20366 13.3006 7.3341 13.6668 7.33366V11.3337H0.333496ZM1.66683 10.0003H12.3335V8.30033C11.9224 8.05588 11.5973 7.73099 11.3582 7.32566C11.1191 6.92033 10.9997 6.47855 11.0002 6.00033C11.0002 5.52255 11.1195 5.08077 11.3582 4.67499C11.5968 4.26921 11.9219 3.94433 12.3335 3.70033V2.00033H1.66683V3.70033C2.07794 3.94477 2.40305 4.26988 2.64216 4.67566C2.88127 5.08144 3.00061 5.52299 3.00016 6.00033C3.00016 6.4781 2.88083 6.91988 2.64216 7.32566C2.4035 7.73144 2.07838 8.05633 1.66683 8.30033V10.0003ZM6.3335 9.33366H7.66683V8.00033H6.3335V9.33366ZM6.3335 6.66699H7.66683V5.33366H6.3335V6.66699ZM6.3335 4.00033H7.66683V2.66699H6.3335V4.00033Z" fill="#616161"/>
</svg>
