<svg width="12" height="14" viewBox="0 0 12 14" fill="none" xmlns="http://www.w3.org/2000/svg">
<path d="M3.33333 8.33301C3.14445 8.33301 2.986 8.26901 2.858 8.14101C2.73 8.01301 2.66622 7.85479 2.66667 7.66634C2.66667 7.47745 2.73067 7.31901 2.85867 7.19101C2.98667 7.06301 3.14489 6.99923 3.33333 6.99968C3.52222 6.99968 3.68067 7.06368 3.80867 7.19168C3.93667 7.31968 4.00045 7.4779 4 7.66634C4 7.85523 3.936 8.01368 3.808 8.14168C3.68 8.26968 3.52178 8.33345 3.33333 8.33301ZM6 8.33301C5.81111 8.33301 5.65267 8.26901 5.52467 8.14101C5.39667 8.01301 5.33289 7.85479 5.33333 7.66634C5.33333 7.47745 5.39734 7.31901 5.52533 7.19101C5.65333 7.06301 5.81156 6.99923 6 6.99968C6.18889 6.99968 6.34733 7.06368 6.47534 7.19168C6.60333 7.31968 6.66711 7.4779 6.66667 7.66634C6.66667 7.85523 6.60267 8.01368 6.47467 8.14168C6.34667 8.26968 6.18845 8.33345 6 8.33301ZM8.66667 8.33301C8.47778 8.33301 8.31933 8.26901 8.19133 8.14101C8.06333 8.01301 7.99956 7.85479 8 7.66634C8 7.47745 8.064 7.31901 8.192 7.19101C8.32 7.06301 8.47822 6.99923 8.66667 6.99968C8.85556 6.99968 9.014 7.06368 9.142 7.19168C9.27 7.31968 9.33378 7.4779 9.33333 7.66634C9.33333 7.85523 9.26933 8.01368 9.14133 8.14168C9.01334 8.26968 8.85511 8.33345 8.66667 8.33301ZM1.33333 13.6663C0.966668 13.6663 0.652668 13.5357 0.391334 13.2743C0.130001 13.013 -0.000443313 12.6992 1.13186e-06 12.333V2.99968C1.13186e-06 2.63301 0.130668 2.31901 0.392001 2.05768C0.653334 1.79634 0.967112 1.6659 1.33333 1.66634H2V0.999677C2 0.810788 2.064 0.652343 2.192 0.524343C2.32 0.396343 2.47822 0.332566 2.66667 0.33301C2.85556 0.33301 3.014 0.39701 3.142 0.52501C3.27 0.65301 3.33378 0.811232 3.33333 0.999677V1.66634H8.66667V0.999677C8.66667 0.810788 8.73067 0.652343 8.85867 0.524343C8.98667 0.396343 9.14489 0.332566 9.33333 0.33301C9.52222 0.33301 9.68067 0.39701 9.80867 0.52501C9.93667 0.65301 10.0004 0.811232 10 0.999677V1.66634H10.6667C11.0333 1.66634 11.3473 1.79701 11.6087 2.05834C11.87 2.31968 12.0004 2.63345 12 2.99968V12.333C12 12.6997 11.8693 13.0137 11.608 13.275C11.3467 13.5363 11.0329 13.6668 10.6667 13.6663H1.33333ZM1.33333 12.333H10.6667V5.66634H1.33333V12.333ZM1.33333 4.33301H10.6667V2.99968H1.33333V4.33301Z" fill="#616161"/>
</svg>
