<svg width="12" height="14" viewBox="0 0 12 14" fill="none" xmlns="http://www.w3.org/2000/svg">
<path d="M9.99984 1.66634V12.333H1.99984V4.86634L5.19984 1.66634H9.99984ZM9.99984 0.333008H4.6665L0.666504 4.33301V12.333C0.666504 13.0663 1.2665 13.6663 1.99984 13.6663H9.99984C10.7332 13.6663 11.3332 13.0663 11.3332 12.333V1.66634C11.3332 0.933008 10.7332 0.333008 9.99984 0.333008ZM4.33317 11.6663H2.99984V10.333H4.33317V11.6663ZM8.99984 11.6663H7.6665V10.333H8.99984V11.6663ZM4.33317 8.99967H2.99984V6.33301H4.33317V8.99967ZM6.6665 11.6663H5.33317V8.99967H6.6665V11.6663ZM6.6665 7.66634H5.33317V6.33301H6.6665V7.66634ZM8.99984 8.99967H7.6665V6.33301H8.99984V8.99967Z" fill="#616161"/>
</svg>
