<svg width="14" height="15" viewBox="0 0 14 15" fill="none" xmlns="http://www.w3.org/2000/svg">
<path d="M10.7711 10.1046C10.2493 10.6263 9.25177 11.6239 8.41365 12.462C7.6326 13.243 6.36711 13.2431 5.58606 12.462C4.76367 11.6396 3.78292 10.6589 3.2286 10.1046C1.1458 8.02177 1.1458 4.64489 3.2286 2.5621C5.3114 0.479301 8.68828 0.479301 10.7711 2.5621C12.8539 4.64489 12.8539 8.02177 10.7711 10.1046Z" stroke="#616161" stroke-width="2" stroke-linecap="round" stroke-linejoin="round"/>
<path d="M8.99984 6.33333C8.99984 7.4379 8.10441 8.33333 6.99984 8.33333C5.89527 8.33333 4.99984 7.4379 4.99984 6.33333C4.99984 5.22876 5.89527 4.33333 6.99984 4.33333C8.10441 4.33333 8.99984 5.22876 8.99984 6.33333Z" stroke="#616161" stroke-width="2" stroke-linecap="round" stroke-linejoin="round"/>
</svg>
