<svg width="12" height="13" viewBox="0 0 12 13" fill="none" xmlns="http://www.w3.org/2000/svg">
<path d="M6 7.63346V1.63346C6 1.44457 6.064 1.28635 6.192 1.1588C6.32 1.03124 6.47822 0.967241 6.66667 0.966797H11.3333C11.5222 0.966797 11.6807 1.0308 11.8087 1.1588C11.9367 1.2868 12.0004 1.44502 12 1.63346V4.9668C12 5.15569 11.936 5.31413 11.808 5.44213C11.68 5.57013 11.5218 5.63391 11.3333 5.63346H8L6 7.63346ZM7.33333 4.30013H10.6667V2.30013H7.33333V4.30013ZM11.3 13.0001C9.86667 13.0001 8.46933 12.6806 7.108 12.0415C5.74667 11.4024 4.54111 10.5579 3.49133 9.50813C2.44156 8.45835 1.59711 7.2528 0.958 5.89146C0.318889 4.53013 -0.000443981 3.13302 4.63285e-07 1.70013C4.63285e-07 1.50013 0.0666671 1.33346 0.2 1.20013C0.333334 1.0668 0.500001 1.00013 0.700001 1.00013H3.4C3.55556 1.00013 3.69445 1.05013 3.81667 1.15013C3.93889 1.25013 4.01111 1.37791 4.03333 1.53346L4.46667 3.8668C4.48889 4.02235 4.486 4.16413 4.458 4.29213C4.43 4.42013 4.36622 4.53391 4.26667 4.63346L2.65 6.2668C3.11667 7.0668 3.70289 7.8168 4.40867 8.5168C5.11444 9.2168 5.88933 9.82235 6.73333 10.3335L8.3 8.7668C8.4 8.6668 8.53067 8.59169 8.692 8.54146C8.85333 8.49124 9.01156 8.47746 9.16667 8.50013L11.4667 8.9668C11.6222 9.00013 11.75 9.07524 11.85 9.19213C11.95 9.30902 12 9.44502 12 9.60013V12.3001C12 12.5001 11.9333 12.6668 11.8 12.8001C11.6667 12.9335 11.5 13.0001 11.3 13.0001ZM2.01667 5.00013L3.11667 3.90013L2.83333 2.33346H1.35C1.40556 2.78902 1.48333 3.23902 1.58333 3.68346C1.68333 4.12791 1.82778 4.5668 2.01667 5.00013ZM7.98333 10.9668C8.41667 11.1557 8.85845 11.3057 9.30867 11.4168C9.75889 11.5279 10.2116 11.6001 10.6667 11.6335V10.1668L9.1 9.85013L7.98333 10.9668Z" fill="#616161"/>
</svg>
