<svg width="200" height="22" viewBox="0 0 200 22" fill="none" xmlns="http://www.w3.org/2000/svg">
<path d="M12.5483 6.74148C12.482 6.01231 12.187 5.44555 11.6634 5.04119C11.1463 4.63021 10.4072 4.42472 9.44602 4.42472C8.80966 4.42472 8.27936 4.50758 7.85511 4.67329C7.43087 4.83901 7.11269 5.06771 6.90057 5.35938C6.68845 5.64441 6.57907 5.97254 6.57244 6.34375C6.55919 6.64867 6.61884 6.91714 6.75142 7.14915C6.89063 7.38115 7.08949 7.58665 7.34801 7.76562C7.61316 7.93797 7.93135 8.09044 8.30256 8.22301C8.67377 8.35559 9.09138 8.47159 9.5554 8.57102L11.3054 8.96875C12.313 9.1875 13.2012 9.47917 13.9702 9.84375C14.7457 10.2083 15.3954 10.6425 15.919 11.1463C16.4493 11.6501 16.8504 12.2301 17.1222 12.8864C17.3939 13.5426 17.5331 14.2784 17.5398 15.0938C17.5331 16.3797 17.2083 17.4834 16.5653 18.4048C15.9223 19.3262 14.9976 20.0322 13.7912 20.5227C12.5914 21.0133 11.143 21.2585 9.44602 21.2585C7.74242 21.2585 6.25758 21.0033 4.99148 20.4929C3.72538 19.9825 2.741 19.2069 2.03835 18.1662C1.3357 17.1255 0.974432 15.8097 0.954545 14.2188H5.66761C5.70739 14.875 5.88305 15.4219 6.1946 15.8594C6.50616 16.2969 6.93371 16.6283 7.47727 16.8537C8.02746 17.0791 8.66383 17.1918 9.38636 17.1918C10.0492 17.1918 10.6127 17.1023 11.0767 16.9233C11.5473 16.7443 11.9086 16.4957 12.1605 16.1776C12.4124 15.8594 12.5417 15.4948 12.5483 15.0838C12.5417 14.6993 12.4223 14.3712 12.1903 14.0994C11.9583 13.821 11.6004 13.5824 11.1165 13.3835C10.6392 13.178 10.0294 12.9891 9.28693 12.8168L7.15909 12.3196C5.39583 11.9152 4.0071 11.2623 2.9929 10.3608C1.97869 9.45265 1.47491 8.22633 1.48153 6.68182C1.47491 5.42235 1.81297 4.31865 2.49574 3.37074C3.1785 2.42282 4.12311 1.68371 5.32955 1.15341C6.53599 0.623106 7.91146 0.357954 9.45597 0.357954C11.0336 0.357954 12.4025 0.62642 13.5625 1.16335C14.7292 1.69365 15.634 2.43939 16.277 3.40057C16.92 4.36174 17.2481 5.47538 17.2614 6.74148H12.5483ZM22.9376 0.636363H29.0327L34.2032 13.2443H34.4418L39.6123 0.636363H45.7075V21H40.9148V8.49148H40.7458L35.8538 20.8707H32.7913L27.8992 8.42188H27.7302V21H22.9376V0.636363ZM56.0942 21H50.8045L57.6752 0.636363H64.2278L71.0985 21H65.8087L61.0261 5.76704H60.867L56.0942 21ZM55.3883 12.9858H66.4451V16.7244H55.3883V12.9858ZM76.203 21V0.636363H84.6149C86.1395 0.636363 87.4553 0.911458 88.5623 1.46165C89.676 2.00521 90.5344 2.7874 91.1376 3.80824C91.7409 4.82244 92.0425 6.02557 92.0425 7.41761C92.0425 8.82955 91.7342 10.0294 91.1177 11.017C90.5013 11.9981 89.6263 12.7472 88.4927 13.2642C87.3592 13.7746 86.0169 14.0298 84.4658 14.0298H79.1462V10.152H83.551C84.2934 10.152 84.9132 10.0559 85.4104 9.86364C85.9141 9.66477 86.2953 9.36648 86.5538 8.96875C86.8123 8.56439 86.9416 8.04735 86.9416 7.41761C86.9416 6.78788 86.8123 6.26752 86.5538 5.85653C86.2953 5.43892 85.9141 5.12737 85.4104 4.92188C84.9066 4.70975 84.2868 4.60369 83.551 4.60369H81.1248V21H76.203ZM87.6675 11.6932L92.7385 21H87.3692L82.3976 11.6932H87.6675ZM96.9878 4.63352V0.636363H114.199V4.63352H108.025V21H103.173V4.63352H96.9878ZM119.515 21V0.636363H124.437V17.0028H132.909V21H119.515ZM138.369 21V0.636363H152.568V4.63352H143.291V8.80966H151.842V12.8168H143.291V17.0028H152.568V21H138.369ZM175.893 0.636363V21H171.717L163.613 9.24716H163.484V21H158.562V0.636363H162.798L170.812 12.3693H170.981V0.636363H175.893ZM189.427 21H181.9V0.636363H189.417C191.492 0.636363 193.278 1.04403 194.776 1.85938C196.281 2.66809 197.441 3.83475 198.256 5.35938C199.072 6.87737 199.479 8.69365 199.479 10.8082C199.479 12.9295 199.072 14.7524 198.256 16.277C197.448 17.8016 196.291 18.9716 194.786 19.7869C193.281 20.5956 191.495 21 189.427 21ZM186.822 16.804H189.238C190.378 16.804 191.342 16.6117 192.131 16.2273C192.927 15.8362 193.527 15.2031 193.931 14.3281C194.342 13.4465 194.547 12.2732 194.547 10.8082C194.547 9.34328 194.342 8.17661 193.931 7.30824C193.52 6.43324 192.913 5.8035 192.111 5.41903C191.316 5.02793 190.335 4.83239 189.168 4.83239H186.822V16.804Z" fill="#4C4DDC"/>
</svg>
